<svg xmlns="http://www.w3.org/2000/svg" width="119.892" height="116" viewBox="0 0 119.892 116"><defs><style>.a{fill:#07f;}</style></defs><g transform="translate(-2 -3)"><path class="a" d="M14.989,26.978A11.982,11.982,0,0,0,26.8,16.987H50.129l-2.584,2.584L50.371,22.4l7.407-7.407L50.371,7.582l-2.826,2.826,2.584,2.584H26.8A11.984,11.984,0,1,0,14.989,26.978Z" transform="translate(0.998)"/><path class="a" d="M69.378,12.991H56.21a11.989,11.989,0,1,0,0,4H69.378a20.981,20.981,0,1,1,0,41.962H37.235l2.584-2.584L36.993,53.54l-7.407,7.407,7.407,7.407,2.826-2.826-2.584-2.584H69.378a24.977,24.977,0,0,0,0-49.955Z" transform="translate(27.536 0)"/><circle class="a" cx="12.5" cy="12.5" r="12.5" transform="translate(94.946 94)"/><path class="a" d="M32.989,49A11.989,11.989,0,1,0,44.8,62.987H68.129l-2.584,2.584L68.371,68.4l7.407-7.407-7.407-7.407-2.826,2.826,2.584,2.584H44.8A11.982,11.982,0,0,0,32.989,49Z" transform="translate(18.966 45.917)"/><path class="a" d="M26.977,85.946h4.168l-2.584,2.584,2.826,2.826,7.407-7.407L31.388,76.54l-2.826,2.826,2.584,2.584H26.977a20.981,20.981,0,0,1,0-41.962h5.175a11.989,11.989,0,1,0,0-4H26.977a24.977,24.977,0,1,0,0,49.955Z" transform="translate(0 22.958)"/></g></svg>