<svg id="log-out_1_" data-name="log-out (1)" xmlns="http://www.w3.org/2000/svg" width="73.838" height="73.838" viewBox="0 0 73.838 73.838">
  <path id="Path_6" data-name="Path 6" d="M46.148,40a3.076,3.076,0,0,0-3.077,3.077V55.378A3.08,3.08,0,0,1,40,58.455h-9.23V12.306a6.2,6.2,0,0,0-4.19-5.849l-.911-.3H40A3.08,3.08,0,0,1,43.072,9.23v9.23a3.077,3.077,0,1,0,6.153,0V9.23A9.241,9.241,0,0,0,40,0H6.922a2.4,2.4,0,0,0-.329.068C6.445.055,6.3,0,6.153,0A6.159,6.159,0,0,0,0,6.153V61.531A6.2,6.2,0,0,0,4.19,67.38l18.515,6.172a6.371,6.371,0,0,0,1.907.286,6.159,6.159,0,0,0,6.153-6.153V64.608H40a9.241,9.241,0,0,0,9.23-9.23V43.072A3.076,3.076,0,0,0,46.148,40Z" fill="#07f"/>
  <path id="Path_7" data-name="Path 7" d="M45.941,18.208,33.635,5.9a3.076,3.076,0,0,0-5.252,2.175v9.23H16.077a3.077,3.077,0,0,0,0,6.153H28.383v9.23a3.076,3.076,0,0,0,5.252,2.175L45.941,22.558a3.073,3.073,0,0,0,0-4.35Z" transform="translate(26.995 10.382)" fill="#07f"/>
</svg>
