<svg xmlns="http://www.w3.org/2000/svg" width="119.661" height="119.664" viewBox="0 0 119.661 119.664"><defs><style>.a{fill:#07f;}</style></defs><g transform="translate(-0.007)"><g transform="translate(0.007)"><g transform="translate(0)"><path class="a" d="M96.767,34.766A2.337,2.337,0,0,0,99.1,32.428V7.012A7.02,7.02,0,0,0,92.092,0H7.019A7.02,7.02,0,0,0,.007,7.012V112.652a7.02,7.02,0,0,0,7.012,7.012H92.092a7.02,7.02,0,0,0,7.012-7.012V95.434a2.337,2.337,0,1,0-4.674,0v17.219a2.34,2.34,0,0,1-2.337,2.337H7.019a2.34,2.34,0,0,1-2.337-2.337V7.012A2.34,2.34,0,0,1,7.019,4.674H92.092a2.34,2.34,0,0,1,2.337,2.337V32.428A2.337,2.337,0,0,0,96.767,34.766Z" transform="translate(-0.007)"/></g></g><g transform="translate(28.053 12.621)"><path class="a" d="M141.509,54a21.492,21.492,0,0,0-14.752,37.131,2.31,2.31,0,0,0,.251.234,21.462,21.462,0,0,0,29,0,2.329,2.329,0,0,0,.251-.234A21.491,21.491,0,0,0,141.509,54Zm0,38.33A16.738,16.738,0,0,1,131.344,88.9a11.686,11.686,0,0,1,20.329,0A16.738,16.738,0,0,1,141.509,92.33Zm-3.74-17.763V73.048a3.74,3.74,0,1,1,7.479,0v1.519a3.74,3.74,0,1,1-7.479,0Zm17.281,10.911a16.214,16.214,0,0,0-6.886-5.772,8.37,8.37,0,0,0,1.758-5.139V73.048a8.414,8.414,0,1,0-16.828,0v1.519a8.37,8.37,0,0,0,1.758,5.139,16.214,16.214,0,0,0-6.886,5.772,16.828,16.828,0,1,1,27.083,0Z" transform="translate(-120.007 -54)"/></g><g transform="translate(47.218 102.369)"><path class="a" d="M216.965,438H204.344a2.337,2.337,0,0,0,0,4.674h12.621a2.337,2.337,0,0,0,0-4.674Z" transform="translate(-202.007 -438)"/></g><g transform="translate(26.651 89.281)"><path class="a" d="M149.532,382H116.344a2.337,2.337,0,1,0,0,4.674h33.188a2.337,2.337,0,1,0,0-4.674Z" transform="translate(-114.007 -382)"/></g><g transform="translate(26.651 76.192)"><path class="a" d="M149.532,326H116.344a2.337,2.337,0,0,0,0,4.674h33.188a2.337,2.337,0,0,0,0-4.674Z" transform="translate(-114.007 -326)"/></g><g transform="translate(16.666 63.104)"><path class="a" d="M75.279,270.685a2.335,2.335,0,1,0,.685,1.652A2.355,2.355,0,0,0,75.279,270.685Z" transform="translate(-71.287 -270)"/></g><g transform="translate(16.666 76.192)"><path class="a" d="M75.279,326.685a2.335,2.335,0,1,0,.685,1.652A2.36,2.36,0,0,0,75.279,326.685Z" transform="translate(-71.287 -326)"/></g><g transform="translate(16.666 89.281)"><path class="a" d="M75.279,382.685a2.335,2.335,0,1,0,.685,1.652A2.36,2.36,0,0,0,75.279,382.685Z" transform="translate(-71.287 -382)"/></g><g transform="translate(26.651 63.104)"><path class="a" d="M149.532,270H116.344a2.337,2.337,0,1,0,0,4.674h33.188a2.337,2.337,0,1,0,0-4.674Z" transform="translate(-114.007 -270)"/></g><g transform="translate(69.558 29.139)"><path class="a" d="M342.793,125.994a9.816,9.816,0,0,0-13.409,3.593L299.973,180.53a2.341,2.341,0,0,0-.3.909l-2.07,18.544a2.337,2.337,0,0,0,3.709,2.141l15.024-11.065a2.331,2.331,0,0,0,.638-.713L346.386,139.4A9.827,9.827,0,0,0,342.793,125.994Zm-39.952,69.2,1.081-9.683,6.764,3.905Zm11.253-9.208-8.906-5.142,23.6-40.88L337.7,145.1Zm28.243-48.918-2.3,3.99-8.906-5.142,2.3-3.99a5.142,5.142,0,0,1,8.906,5.142Z" transform="translate(-297.589 -124.675)"/></g></g></svg>