<svg xmlns="http://www.w3.org/2000/svg" width="95.46" height="123.664" viewBox="0 0 95.46 123.664"><defs><style>.a{fill:#07f;}</style></defs><g transform="translate(-64 -16)"><path class="a" d="M139.391,152a43.391,43.391,0,1,0,43.391,43.391A43.44,43.44,0,0,0,139.391,152Zm0,82.443a39.052,39.052,0,1,1,39.052-39.052A39.1,39.1,0,0,1,139.391,234.443Z" transform="translate(-23.322 -99.118)"/><path class="a" d="M162.713,184a34.713,34.713,0,1,0,34.713,34.713A34.713,34.713,0,0,0,162.713,184Zm13.308,7.322,3.758,2.17-3.254,5.637-3.758-2.17Zm-15.478-2.983h4.339v6.509h-4.339Zm-28.2,28.2h6.509v4.339h-6.509Zm5.153,19.235-2.17-3.758,5.637-3.254,2.17,3.758Zm3.467-27.119-5.637-3.254,2.17-3.758,5.637,3.254ZM149.4,246.1l-3.758-2.17L148.9,238.3l3.758,2.17Zm-.5-46.971-3.254-5.637,3.758-2.17,3.254,5.637Zm15.981,49.954h-4.339v-6.509h4.339Zm-2.17-23.865a6.509,6.509,0,1,1,4.225-11.453l21-12.121,2.17,3.758-20.99,12.119a6.5,6.5,0,0,1-6.4,7.7ZM176.021,246.1l-3.254-5.637,3.758-2.17,3.254,5.637Zm11.913-10.325-5.637-3.254,2.17-3.758,5.637,3.254Zm-1.356-14.9v-4.339h6.509v4.339Z" transform="translate(-46.644 -122.44)"/><circle class="a" cx="2.323" cy="2.323" r="2.323" transform="translate(113.278 93.316)"/><path class="a" d="M111.215,172.825a48.153,48.153,0,0,1,5.61-5.61l-3.9-3.9-5.61,5.61Z" transform="translate(-31.567 -107.363)"/><path class="a" d="M240,118.708c1.43-.129,2.876-.2,4.339-.2s2.909.07,4.339.2V112H240Z" transform="translate(-128.27 -69.965)"/><path class="a" d="M375.224,172.825l3.9-3.9-5.61-5.61-3.9,3.9A48.15,48.15,0,0,1,375.224,172.825Z" transform="translate(-222.734 -107.363)"/><path class="a" d="M115.933,71.865a11.946,11.946,0,0,0,11.932-11.932,7.593,7.593,0,0,1,15.187,0v1.085h4.339V59.932a11.932,11.932,0,1,0-23.865,0,7.593,7.593,0,0,1-15.187,0V50.17H104v9.763A11.946,11.946,0,0,0,115.933,71.865Z" transform="translate(-29.152 -23.322)"/><path class="a" d="M104,16h4.339v4.339H104Z" transform="translate(-29.152)"/><path class="a" d="M64,56h4.339v4.339H64Z" transform="translate(0 -29.152)"/><path class="a" d="M144,56h4.339v4.339H144Z" transform="translate(-58.305 -29.152)"/><path class="a" d="M0,0H4.339V4.339H0Z" transform="translate(66.274 36.687) rotate(-45)"/><path class="a" d="M0,0H4.339V4.339H0Z" transform="translate(81.615 21.35) rotate(-45)"/><path class="a" d="M0,0H4.339V4.339H0Z" transform="translate(81.613 36.689) rotate(-45)"/><path class="a" d="M0,0H4.339V4.339H0Z" transform="translate(66.276 21.348) rotate(-45)"/></g></svg>